# WaveFront *.obj file (generated by CINEMA 4D)

mtllib ./Manifesto.mtl

v 66.26652526855469 37.76976776123047 -2.47900438308716
v 66.26653289794922 34.42251586914062 -2.45925569534302
v 63.76652908325195 37.76976776123047 -2.47797894477844
v 63.76653671264648 34.42251586914062 -2.45823049545288
v 63.75202941894531 2.4144275188446 -37.83331680297852
v 63.75341415405273 2.43061661720276 -34.45752716064453
v 66.25202941894531 2.4144275188446 -37.8343391418457
v 66.25341033935547 2.43061661720276 -34.45855331420898
# 8 vertices

vn 0.00041012113797 0.00589983304963 0.99998253583908
vn -0.99999994039536 0.00000002790494 0.00041007279651
vn 0.00000196488509 -0.99998849630356 0.00479559414089
vn 0.99999994039536 -0.00000058322252 -0.00040946339141
vn 0.00028996187029 -0.70718854665756 0.70702493190765
vn -0.00028999539791 0.70710676908493 -0.70710670948029
# 6 normals

vt 0 0 0
vt 0 1 0
vt 1 1 0
vt 1 0 0
# 4 texture coordinates

o Quer2.1
usemtl Mat
f 3/4/1 4/3/1 2/2/1 1/1/1
f 5/4/2 6/3/2 4/2/2 3/1/2
f 7/4/3 8/3/3 6/2/3 5/1/3
f 1/4/4 2/3/4 8/2/4 7/1/4
f 4/4/5 6/3/5 8/2/5 2/1/5
f 5/4/6 3/3/6 1/2/6 7/1/6

v 1.18197309970856 37.76976776123047 -2.45231223106384
v 1.18198120594025 34.42251586914062 -2.4325635433197
v -1.31802666187286 37.76976776123047 -2.45128679275513
v -1.31801855564117 34.42251586914062 -2.43153834342957
v -1.33252644538879 2.4144275188446 -37.80662155151367
v -1.33114194869995 2.43061661720276 -34.43083572387695
v 1.16747331619263 2.4144275188446 -37.80764770507812
v 1.16885781288147 2.43061661720276 -34.43186187744141
# 8 vertices

vn 0.000410120585 0.00589983304963 0.99998253583908
vn -0.99999994039536 -0.0000000059464 0.00041012157453
vn 0.00000196832298 -0.99998849630356 0.00479559693485
vn 0.99999994039536 0.0000000063911 -0.00041012163274
# 4 normals

# 0 texture coordinate

o Quer1.1
usemtl Mat
f 11/4/7 12/3/7 10/2/7 9/1/7
f 13/4/8 14/3/8 12/2/8 11/1/8
f 15/4/9 16/3/9 14/2/9 13/1/9
f 9/4/10 10/3/10 16/2/10 15/1/10
f 12/4/5 14/3/5 16/2/5 10/1/5
f 13/4/6 11/3/6 9/2/6 15/1/6

v -1.30913162231445 37.76976776123047 2.43709206581116
v -1.30913162231445 34.42251586914062 2.4173436164856
v 1.19086837768555 37.76976776123047 2.43709206581116
v 1.19086837768555 34.42251586914062 2.4173436164856
v 1.19086837768555 2.4144275188446 37.79243087768555
v 1.19086837768555 2.43061661720276 34.41664505004883
v -1.30913162231445 2.4144275188446 37.79243087768555
v -1.30913162231445 2.43061661720276 34.41664505004883
# 8 vertices

vn 0 0.00589979719371 -0.99998259544373
vn 1 0 0
vn 0 -0.99998849630356 -0.00479559786618
vn -1 0 0
vn 0 -0.70718854665756 -0.7070249915123
vn 0 0.70710676908493 0.70710676908493
# 6 normals

# 0 texture coordinate

o Quer2
usemtl Mat
f 19/4/11 20/3/11 18/2/11 17/1/11
f 21/4/12 22/3/12 20/2/12 19/1/12
f 23/4/13 24/3/13 22/2/13 21/1/13
f 17/4/14 18/3/14 24/2/14 23/1/14
f 20/4/15 22/3/15 24/2/15 18/1/15
f 21/4/16 19/3/16 17/2/16 23/1/16

v 63.77542877197266 37.76976776123047 2.43709206581116
v 63.77542877197266 34.42251586914062 2.4173436164856
v 66.27542877197266 37.76976776123047 2.43709206581116
v 66.27542877197266 34.42251586914062 2.4173436164856
v 66.27542877197266 2.4144275188446 37.79243087768555
v 66.27542877197266 2.43061661720276 34.41664505004883
v 63.77542877197266 2.4144275188446 37.79243087768555
v 63.77542877197266 2.43061661720276 34.41664505004883
# 8 vertices

# 0 normal

# 0 texture coordinate

o Quer1
usemtl Mat
f 27/4/11 28/3/11 26/2/11 25/1/11
f 29/4/12 30/3/12 28/2/12 27/1/12
f 31/4/13 32/3/13 30/2/13 29/1/13
f 25/4/14 26/3/14 32/2/14 31/1/14
f 28/4/15 30/3/15 32/2/15 26/1/15
f 29/4/16 27/3/16 25/2/16 31/1/16

v 12.5 60.87862396240234 2.55344486236572
v 12.5 92.87862396240234 2.55344486236572
v 52.5 60.87862396240234 2.55344486236572
v 52.5 92.87862396240234 2.55344486236572
v 52.5 60.87862396240234 1.07528591156006
v 52.5 92.87862396240234 1.07528591156006
v 12.5 60.87862396240234 1.07528591156006
v 12.5 92.87862396240234 1.07528591156006
v 51 91.67861938476562 2.55344486236572
v 14 62.0786247253418 2.55344486236572
v 14 91.67861938476562 1.07528591156006
v 51 62.0786247253418 1.07528591156006
v 14 91.67861938476562 2.55344486236572
v 51 62.0786247253418 2.55344486236572
v 51 91.67861938476562 1.07528591156006
v 14 62.0786247253418 1.07528591156006
# 16 vertices

vn 0 0 1
vn 0 0 -1
vn 0 0 0
vn 0 1 0
vn 0 -1 0
# 5 normals

vt 0.03750000149012 0.03750002384186 0
vt 0.96249997615814 0.03750002384186 0
vt 0.03750000149012 0.96249997615814 0
vt 0.96249997615814 0.96249997615814 0
# 4 texture coordinates

o Screen1.1
usemtl Mat
f 35/4/17 46/6/17 42/5/17 33/1/17
f 34/2/17 33/1/17 42/5/17 45/7/17
f 41/8/17 36/3/17 34/2/17 45/7/17
f 41/8/17 46/6/17 35/4/17 36/3/17
f 37/4/12 38/3/12 36/2/12 35/1/12
f 39/4/18 43/8/18 48/6/18
f 43/8/18 39/4/18 40/3/18
f 37/1/18 39/4/18 48/6/18 44/5/18
f 47/7/18 43/8/18 40/3/18 38/2/18
f 37/1/18 44/5/18 47/7/18 38/2/18
f 33/4/14 34/3/14 40/2/14 39/1/14
f 36/4/20 38/3/20 40/2/20 34/1/20
f 37/4/21 35/3/21 33/2/21 39/1/21

v 51 91.67861938476562 2.55344486236572
v 51 62.0786247253418 2.55344486236572
v 14 91.67861938476562 2.55344486236572
v 14 62.0786247253418 2.55344486236572
v 51 91.67861938476562 1.07528591156006
v 51 62.0786247253418 1.07528591156006
v 14 91.67861938476562 1.07528591156006
v 14 62.0786247253418 1.07528591156006
# 8 vertices

# 0 normal

vt 0.50415980815887 0 0
vt 0.70529758930206 0 0
vt 0.70529758930206 1 0
vt 0.50415980815887 1 0
vt 0.29470241069794 0 0
vt 0.49584022164345 0 0
vt 0.49584022164345 1 0
vt 0.29470241069794 1 0
vt 0 0.70529758930206 0
vt 0 0.50415980815887 0
vt 1 0.50415980815887 0
vt 1 0.70529758930206 0
vt 1 0.29470241069794 0
vt 1 0.49584019184113 0
vt 0 0.49584019184113 0
vt 0 0.29470241069794 0
# 16 texture coordinates

o Screen1.2
usemtl Mat
f 49/12/14 53/11/14 54/10/14 50/9/14
f 55/16/12 51/15/12 52/14/12 56/13/12
f 53/20/21 49/19/21 51/18/21 55/17/21
f 56/24/20 52/23/20 50/22/20 54/21/20

v 12.5 101.22854614257812 2.55344486236572
v 12.5 133.22854614257812 2.55344486236572
v 52.5 101.22854614257812 2.55344486236572
v 52.5 133.22854614257812 2.55344486236572
v 52.5 101.22854614257812 1.07528591156006
v 52.5 133.22854614257812 1.07528591156006
v 12.5 101.22854614257812 1.07528591156006
v 12.5 133.22854614257812 1.07528591156006
v 51 132.02854919433594 2.55344486236572
v 51 102.42854309082031 1.07528591156006
v 14 102.42854309082031 2.55344486236572
v 14 132.02854919433594 1.07528591156006
v 14 132.02854919433594 2.55344486236572
v 51 132.02854919433594 1.07528591156006
v 51 102.42854309082031 2.55344486236572
v 14 102.42854309082031 1.07528591156006
# 16 vertices

# 0 normal

# 0 texture coordinate

o Screen1.1_1
usemtl Mat
f 69/7/17 58/2/17 57/1/17 67/5/17
f 59/4/17 71/6/17 67/5/17 57/1/17
f 60/3/17 58/2/17 69/7/17 65/8/17
f 65/8/17 71/6/17 59/4/17 60/3/17
f 61/4/12 62/3/12 60/2/12 59/1/12
f 68/8/18 63/4/18 64/3/18
f 63/4/18 68/8/18 72/6/18
f 70/7/18 68/8/18 64/3/18 62/2/18
f 61/1/18 63/4/18 72/6/18 66/5/18
f 61/1/18 66/5/18 70/7/18 62/2/18
f 57/4/14 58/3/14 64/2/14 63/1/14
f 60/4/20 62/3/20 64/2/20 58/1/20
f 61/4/21 59/3/21 57/2/21 63/1/21

v 51 132.02854919433594 2.55344486236572
v 51 102.42854309082031 2.55344486236572
v 14 132.02854919433594 2.55344486236572
v 14 102.42854309082031 2.55344486236572
v 14 102.42854309082031 1.07528591156006
v 51 132.02854919433594 1.07528591156006
v 14 132.02854919433594 1.07528591156006
v 51 102.42854309082031 1.07528591156006
# 8 vertices

# 0 normal

vt 0.50415980815887 1 0
vt 0.29470241069794 1 0
# 2 texture coordinates

o Screen1.2_1
usemtl Mat
f 73/25/14 78/11/14 80/10/14 74/9/14
f 79/26/12 75/15/12 76/14/12 77/13/12
f 78/20/21 73/19/21 75/18/21 79/17/21
f 77/24/20 76/23/20 74/22/20 80/21/20

v 12.5 141.44390869140625 2.55344486236572
v 12.5 173.44390869140625 2.55344486236572
v 52.5 141.44390869140625 2.55344486236572
v 52.5 173.44390869140625 2.55344486236572
v 52.5 141.44390869140625 1.07528591156006
v 52.5 173.44390869140625 1.07528591156006
v 12.5 141.44390869140625 1.07528591156006
v 12.5 173.44390869140625 1.07528591156006
v 51 172.24391174316406 2.55344486236572
v 51 142.64390563964844 1.07528591156006
v 14 142.64390563964844 2.55344486236572
v 14 172.24391174316406 1.07528591156006
v 14 172.24391174316406 2.55344486236572
v 51 172.24391174316406 1.07528591156006
v 51 142.64390563964844 2.55344486236572
v 14 142.64390563964844 1.07528591156006
# 16 vertices

# 0 normal

# 0 texture coordinate

o Screen1.1_2
usemtl Mat
f 82/2/17 81/1/17 91/5/17 93/7/17
f 83/4/17 95/6/17 91/5/17 81/1/17
f 84/3/17 82/2/17 93/7/17 89/8/17
f 89/8/17 95/6/17 83/4/17 84/3/17
f 85/4/12 86/3/12 84/2/12 83/1/12
f 92/8/18 87/4/18 88/3/18
f 87/4/18 92/8/18 96/6/18
f 94/7/18 92/8/18 88/3/18 86/2/18
f 85/1/18 87/4/18 96/6/18 90/5/18
f 86/2/18 85/1/18 90/5/18 94/7/18
f 81/4/14 82/3/14 88/2/14 87/1/14
f 84/4/20 86/3/20 88/2/20 82/1/20
f 85/4/21 83/3/21 81/2/21 87/1/21

v 51 172.24391174316406 2.55344486236572
v 51 142.64390563964844 2.55344486236572
v 14 172.24391174316406 2.55344486236572
v 14 142.64390563964844 2.55344486236572
v 14 142.64390563964844 1.07528591156006
v 51 172.24391174316406 1.07528591156006
v 14 172.24391174316406 1.07528591156006
v 51 142.64390563964844 1.07528591156006
# 8 vertices

# 0 normal

# 0 texture coordinate

o Screen1.2_2
usemtl Mat
f 97/25/14 102/11/14 104/10/14 98/9/14
f 103/26/12 99/15/12 100/14/12 101/13/12
f 102/20/21 97/19/21 99/18/21 103/17/21
f 101/24/20 100/23/20 98/22/20 104/21/20

v 12.5 60.88202285766602 1.12091267108917
v 12.5 92.88201904296875 1.12091267108917
v 52.5 60.88202285766602 1.12091267108917
v 52.5 92.88201904296875 1.12091267108917
v 52.5 60.88202285766602 -1.87908732891083
v 52.5 92.88201904296875 -1.87908732891083
v 12.5 60.88202285766602 -1.87908732891083
v 12.5 92.88201904296875 -1.87908732891083
# 8 vertices

# 0 normal

# 0 texture coordinate

o Screen3
usemtl Mat
f 107/4/17 108/3/17 106/2/17 105/1/17
f 109/4/12 110/3/12 108/2/12 107/1/12
f 111/4/18 112/3/18 110/2/18 109/1/18
f 105/4/14 106/3/14 112/2/14 111/1/14
f 108/4/20 110/3/20 112/2/20 106/1/20
f 109/4/21 107/3/21 105/2/21 111/1/21

v -2.38681077957153 83.19451904296875 -2.5096435546875
v -2.38681077957153 85.68169403076172 -2.5096435546875
v 67.2540283203125 83.19451904296875 -2.5096435546875
v 67.2540283203125 85.68169403076172 -2.5096435546875
v 67.2540283203125 83.19451904296875 -4.99681663513184
v 67.2540283203125 85.68169403076172 -4.99681663513184
v -2.38681077957153 83.19451904296875 -4.99681663513184
v -2.38681077957153 85.68169403076172 -4.99681663513184
# 8 vertices

# 0 normal

# 0 texture coordinate

o Horizontal3
usemtl Mat
f 115/4/17 116/3/17 114/2/17 113/1/17
f 117/4/12 118/3/12 116/2/12 115/1/12
f 119/4/18 120/3/18 118/2/18 117/1/18
f 113/4/14 114/3/14 120/2/14 119/1/14
f 116/4/20 118/3/20 120/2/20 114/1/20
f 117/4/21 115/3/21 113/2/21 119/1/21

v 12.5 101.22566223144531 1.12091267108917
v 12.5 133.22566223144531 1.12091267108917
v 52.5 101.22566223144531 1.12091267108917
v 52.5 133.22566223144531 1.12091267108917
v 52.5 101.22566223144531 -1.87908732891083
v 52.5 133.22566223144531 -1.87908732891083
v 12.5 101.22566223144531 -1.87908732891083
v 12.5 133.22566223144531 -1.87908732891083
# 8 vertices

# 0 normal

# 0 texture coordinate

o Screen2
usemtl Mat
f 123/4/17 124/3/17 122/2/17 121/1/17
f 125/4/12 126/3/12 124/2/12 123/1/12
f 127/4/18 128/3/18 126/2/18 125/1/18
f 121/4/14 122/3/14 128/2/14 127/1/14
f 124/4/20 126/3/20 128/2/20 122/1/20
f 125/4/21 123/3/21 121/2/21 127/1/21

v -2.38681077957153 123.53816223144531 -2.5096435546875
v -2.38681077957153 126.02533721923828 -2.5096435546875
v 67.2540283203125 123.53816223144531 -2.5096435546875
v 67.2540283203125 126.02533721923828 -2.5096435546875
v 67.2540283203125 123.53816223144531 -4.99681663513184
v 67.2540283203125 126.02533721923828 -4.99681663513184
v -2.38681077957153 123.53816223144531 -4.99681663513184
v -2.38681077957153 126.02533721923828 -4.99681663513184
# 8 vertices

# 0 normal

# 0 texture coordinate

o Horizontal2
usemtl Mat
f 131/4/17 132/3/17 130/2/17 129/1/17
f 133/4/12 134/3/12 132/2/12 131/1/12
f 135/4/18 136/3/18 134/2/18 133/1/18
f 129/4/14 130/3/14 136/2/14 135/1/14
f 132/4/20 134/3/20 136/2/20 130/1/20
f 133/4/21 131/3/21 129/2/21 135/1/21

v 12.5 141.44390869140625 1.12091267108917
v 12.5 173.44390869140625 1.12091267108917
v 52.5 141.44390869140625 1.12091267108917
v 52.5 173.44390869140625 1.12091267108917
v 52.5 141.44390869140625 -1.87908732891083
v 52.5 173.44390869140625 -1.87908732891083
v 12.5 141.44390869140625 -1.87908732891083
v 12.5 173.44390869140625 -1.87908732891083
# 8 vertices

# 0 normal

# 0 texture coordinate

o Screen1
usemtl Mat
f 139/4/17 140/3/17 138/2/17 137/1/17
f 141/4/12 142/3/12 140/2/12 139/1/12
f 143/4/18 144/3/18 142/2/18 141/1/18
f 137/4/14 138/3/14 144/2/14 143/1/14
f 140/4/20 142/3/20 144/2/20 138/1/20
f 141/4/21 139/3/21 137/2/21 143/1/21

v -2.38681077957153 163.75640869140625 -2.5096435546875
v -2.38681077957153 166.24359130859375 -2.5096435546875
v 67.2540283203125 163.75640869140625 -2.5096435546875
v 67.2540283203125 166.24359130859375 -2.5096435546875
v 67.2540283203125 163.75640869140625 -4.99681663513184
v 67.2540283203125 166.24359130859375 -4.99681663513184
v -2.38681077957153 163.75640869140625 -4.99681663513184
v -2.38681077957153 166.24359130859375 -4.99681663513184
# 8 vertices

# 0 normal

# 0 texture coordinate

o Horizontal1
usemtl Mat
f 147/4/17 148/3/17 146/2/17 145/1/17
f 149/4/12 150/3/12 148/2/12 147/1/12
f 151/4/18 152/3/18 150/2/18 149/1/18
f 145/4/14 146/3/14 152/2/14 151/1/14
f 148/4/20 150/3/20 152/2/20 146/1/20
f 149/4/21 147/3/21 145/2/21 151/1/21

v 62.5 1.4412659406662 -2.5
v 62.5 1.4412659406662 2.5
v 67.5 1.4412659406662 -2.5
v 67.5 1.4412659406662 2.5
v 67.5 181.44126892089844 -2.5
v 67.5 181.44126892089844 2.5
v 62.5 181.44126892089844 -2.5
v 62.5 181.44126892089844 2.5
# 8 vertices

vn 0 0 1
vn 0 -0 -1
# 2 normals

# 0 texture coordinate

o Vertikal2
usemtl Mat
f 155/4/21 156/3/21 154/2/21 153/1/21
f 157/4/12 158/3/12 156/2/12 155/1/12
f 159/4/20 160/3/20 158/2/20 157/1/20
f 153/4/14 154/3/14 160/2/14 159/1/14
f 156/4/22 158/3/22 160/2/22 154/1/22
f 157/4/23 155/3/23 153/2/23 159/1/23

v -2.5 1.4412659406662 -2.5
v -2.5 1.4412659406662 2.5
v 2.5 1.4412659406662 -2.5
v 2.5 1.4412659406662 2.5
v 2.5 181.44126892089844 -2.5
v 2.5 181.44126892089844 2.5
v -2.5 181.44126892089844 -2.5
v -2.5 181.44126892089844 2.5
# 8 vertices

# 0 normal

# 0 texture coordinate

o Vertikal1
usemtl Mat
f 163/4/21 164/3/21 162/2/21 161/1/21
f 165/4/12 166/3/12 164/2/12 163/1/12
f 167/4/20 168/3/20 166/2/20 165/1/20
f 161/4/14 162/3/14 168/2/14 167/1/14
f 164/4/22 166/3/22 168/2/22 162/1/22
f 165/4/23 163/3/23 161/2/23 167/1/23

v 62.5 -2.5 50
v 62.5 2.5 50
v 67.5 -2.5 50
v 67.5 2.5 50
v 67.5 -2.5 -50
v 67.5 2.5 -50
v 62.5 -2.5 -50
v 62.5 2.5 -50
# 8 vertices

# 0 normal

# 0 texture coordinate

o Fuss2
usemtl Mat
f 171/4/17 172/3/17 170/2/17 169/1/17
f 173/4/12 174/3/12 172/2/12 171/1/12
f 175/4/18 176/3/18 174/2/18 173/1/18
f 169/4/14 170/3/14 176/2/14 175/1/14
f 172/4/20 174/3/20 176/2/20 170/1/20
f 173/4/21 171/3/21 169/2/21 175/1/21

v -2.5 -2.5 50
v -2.5 2.5 50
v 2.5 -2.5 50
v 2.5 2.5 50
v 2.5 -2.5 -50
v 2.5 2.5 -50
v -2.5 -2.5 -50
v -2.5 2.5 -50
# 8 vertices

# 0 normal

# 0 texture coordinate

o Fuss1
usemtl Mat
f 179/4/17 180/3/17 178/2/17 177/1/17
f 181/4/12 182/3/12 180/2/12 179/1/12
f 183/4/18 184/3/18 182/2/18 181/1/18
f 177/4/14 178/3/14 184/2/14 183/1/14
f 180/4/20 182/3/20 184/2/20 178/1/20
f 181/4/21 179/3/21 177/2/21 183/1/21

