# WaveFront *.obj file (generated by CINEMA 4D)

mtllib ./Manifesto.mtl

v 15 73.05842590332031 1.94509518146515
v 15 111.45842742919922 1.94509518146515
v 63 73.05842590332031 1.94509518146515
v 63 111.45842742919922 1.94509518146515
v 63 73.05842590332031 -2.85490489006042
v 63 111.45842742919922 -2.85490489006042
v 15 73.05842590332031 -2.85490489006042
v 15 111.45842742919922 -2.85490489006042
# 8 vertices

vn 0 0 1
vn 1 0 0
vn 0 0 -1
vn -1 0 0
vn 0 1 0
vn 0 -1 0
# 6 normals

vt 0 0 0
vt 0 1 0
vt 1 1 0
vt 1 0 0
# 4 texture coordinates

o Würfel.9
usemtl Mat
f 3/4/1 4/3/1 2/2/1 1/1/1
f 5/4/2 6/3/2 4/2/2 3/1/2
f 7/4/3 8/3/3 6/2/3 5/1/3
f 1/4/4 2/3/4 8/2/4 7/1/4
f 4/4/5 6/3/5 8/2/5 2/1/5
f 5/4/6 3/3/6 1/2/6 7/1/6

v -1.33711874485016 99.82572937011719 -3.00387620925903
v -1.33711874485016 102.82572937011719 -3.00387620925903
v 82.66287994384766 99.82572937011719 -3.00387620925903
v 82.66287994384766 102.82572937011719 -3.00387620925903
v 82.66287994384766 99.82572937011719 -6.00387620925903
v 82.66287994384766 102.82572937011719 -6.00387620925903
v -1.33711874485016 99.82572937011719 -6.00387620925903
v -1.33711874485016 102.82572937011719 -6.00387620925903
# 8 vertices

# 0 normal

# 0 texture coordinate

o Würfel.8
usemtl Mat
f 11/4/1 12/3/1 10/2/1 9/1/1
f 13/4/2 14/3/2 12/2/2 11/1/2
f 15/4/3 16/3/3 14/2/3 13/1/3
f 9/4/4 10/3/4 16/2/4 15/1/4
f 12/4/5 14/3/5 16/2/5 10/1/5
f 13/4/6 11/3/6 9/2/6 15/1/6

v 15 121.47079467773438 1.94509518146515
v 15 159.87078857421875 1.94509518146515
v 63 121.47079467773438 1.94509518146515
v 63 159.87078857421875 1.94509518146515
v 63 121.47079467773438 -2.85490489006042
v 63 159.87078857421875 -2.85490489006042
v 15 121.47079467773438 -2.85490489006042
v 15 159.87078857421875 -2.85490489006042
# 8 vertices

# 0 normal

# 0 texture coordinate

o Würfel.7
usemtl Mat
f 19/4/1 20/3/1 18/2/1 17/1/1
f 21/4/2 22/3/2 20/2/2 19/1/2
f 23/4/3 24/3/3 22/2/3 21/1/3
f 17/4/4 18/3/4 24/2/4 23/1/4
f 20/4/5 22/3/5 24/2/5 18/1/5
f 21/4/6 19/3/6 17/2/6 23/1/6

v -1.33711874485016 148.23809814453125 -3.00387620925903
v -1.33711874485016 151.23809814453125 -3.00387620925903
v 82.66287994384766 148.23809814453125 -3.00387620925903
v 82.66287994384766 151.23809814453125 -3.00387620925903
v 82.66287994384766 148.23809814453125 -6.00387620925903
v 82.66287994384766 151.23809814453125 -6.00387620925903
v -1.33711874485016 148.23809814453125 -6.00387620925903
v -1.33711874485016 151.23809814453125 -6.00387620925903
# 8 vertices

# 0 normal

# 0 texture coordinate

o Würfel.6
usemtl Mat
f 27/4/1 28/3/1 26/2/1 25/1/1
f 29/4/2 30/3/2 28/2/2 27/1/2
f 31/4/3 32/3/3 30/2/3 29/1/3
f 25/4/4 26/3/4 32/2/4 31/1/4
f 28/4/5 30/3/5 32/2/5 26/1/5
f 29/4/6 27/3/6 25/2/6 31/1/6

v 15 169.73269653320312 1.94509518146515
v 15 208.1326904296875 1.94509518146515
v 63 169.73269653320312 1.94509518146515
v 63 208.1326904296875 1.94509518146515
v 63 169.73269653320312 -2.85490489006042
v 63 208.1326904296875 -2.85490489006042
v 15 169.73269653320312 -2.85490489006042
v 15 208.1326904296875 -2.85490489006042
# 8 vertices

# 0 normal

# 0 texture coordinate

o Würfel.5
usemtl Mat
f 35/4/1 36/3/1 34/2/1 33/1/1
f 37/4/2 38/3/2 36/2/2 35/1/2
f 39/4/3 40/3/3 38/2/3 37/1/3
f 33/4/4 34/3/4 40/2/4 39/1/4
f 36/4/5 38/3/5 40/2/5 34/1/5
f 37/4/6 35/3/6 33/2/6 39/1/6

v -1.33711874485016 196.5 -3.00387620925903
v -1.33711874485016 199.5 -3.00387620925903
v 82.66287994384766 196.5 -3.00387620925903
v 82.66287994384766 199.5 -3.00387620925903
v 82.66287994384766 196.5 -6.00387620925903
v 82.66287994384766 199.5 -6.00387620925903
v -1.33711874485016 196.5 -6.00387620925903
v -1.33711874485016 199.5 -6.00387620925903
# 8 vertices

# 0 normal

# 0 texture coordinate

o Würfel.4
usemtl Mat
f 43/4/1 44/3/1 42/2/1 41/1/1
f 45/4/2 46/3/2 44/2/2 43/1/2
f 47/4/3 48/3/3 46/2/3 45/1/3
f 41/4/4 42/3/4 48/2/4 47/1/4
f 44/4/5 46/3/5 48/2/5 42/1/5
f 45/4/6 43/3/6 41/2/6 47/1/6

v -3 1.72951912879944 -3
v -3 1.72951912879944 3
v 3 1.72951912879944 -3
v 3 1.72951912879944 3
v 3 217.72952270507812 -3
v 3 217.72952270507812 3
v -3 217.72952270507812 -3
v -3 217.72952270507812 3
# 8 vertices

vn 0 0 1
vn 0 -0 -1
# 2 normals

# 0 texture coordinate

o Würfel.3
usemtl Mat
f 51/4/6 52/3/6 50/2/6 49/1/6
f 53/4/2 54/3/2 52/2/2 51/1/2
f 55/4/5 56/3/5 54/2/5 53/1/5
f 49/4/4 50/3/4 56/2/4 55/1/4
f 52/4/7 54/3/7 56/2/7 50/1/7
f 53/4/8 51/3/8 49/2/8 55/1/8

v 75 1.72951912879944 -3
v 75 1.72951912879944 3
v 81 1.72951912879944 -3
v 81 1.72951912879944 3
v 81 217.72952270507812 -3
v 81 217.72952270507812 3
v 75 217.72952270507812 -3
v 75 217.72952270507812 3
# 8 vertices

# 0 normal

# 0 texture coordinate

o Würfel.2
usemtl Mat
f 59/4/6 60/3/6 58/2/6 57/1/6
f 61/4/2 62/3/2 60/2/2 59/1/2
f 63/4/5 64/3/5 62/2/5 61/1/5
f 57/4/4 58/3/4 64/2/4 63/1/4
f 60/4/7 62/3/7 64/2/7 58/1/7
f 61/4/8 59/3/8 57/2/8 63/1/8

v 75 -3 60
v 75 3 60
v 81 -3 60
v 81 3 60
v 81 -3 -60
v 81 3 -60
v 75 -3 -60
v 75 3 -60
# 8 vertices

# 0 normal

# 0 texture coordinate

o Würfel.1
usemtl Mat
f 67/4/1 68/3/1 66/2/1 65/1/1
f 69/4/2 70/3/2 68/2/2 67/1/2
f 71/4/3 72/3/3 70/2/3 69/1/3
f 65/4/4 66/3/4 72/2/4 71/1/4
f 68/4/5 70/3/5 72/2/5 66/1/5
f 69/4/6 67/3/6 65/2/6 71/1/6

v -3 -3 60
v -3 3 60
v 3 -3 60
v 3 3 60
v 3 -3 -60
v 3 3 -60
v -3 -3 -60
v -3 3 -60
# 8 vertices

# 0 normal

# 0 texture coordinate

o Würfel
usemtl Mat
f 75/4/1 76/3/1 74/2/1 73/1/1
f 77/4/2 78/3/2 76/2/2 75/1/2
f 79/4/3 80/3/3 78/2/3 77/1/3
f 73/4/4 74/3/4 80/2/4 79/1/4
f 76/4/5 78/3/5 80/2/5 74/1/5
f 77/4/6 75/3/6 73/2/6 79/1/6

